<?xml version="1.0" standalone="no"?>
<!DOCTYPE svg PUBLIC "-//W3C//DTD SVG 20010904//EN"
 "http://www.w3.org/TR/2001/REC-SVG-20010904/DTD/svg10.dtd">
<svg version="1.0" xmlns="http://www.w3.org/2000/svg"
 width="467.000000pt" height="250.000000pt" viewBox="0 0 467.000000 250.000000"
 preserveAspectRatio="xMidYMid meet">

<g transform="translate(0.000000,250.000000) scale(0.100000,-0.100000)"
fill="#000000" stroke="none">
<path d="M4495 2466 c-215 -45 -392 -105 -570 -193 -207 -103 -327 -188 -541
-384 -171 -156 -261 -224 -383 -288 -292 -152 -653 -200 -1096 -145 l-40 5 55
-26 c89 -42 270 -102 392 -129 387 -86 745 -47 1070 115 160 80 367 223 628
433 198 159 450 401 598 574 l54 62 -29 -1 c-15 0 -77 -11 -138 -23z"/>
<path d="M1287 1150 c-111 -28 -209 -110 -260 -218 -29 -61 -32 -75 -32 -167
0 -88 3 -107 28 -159 36 -77 85 -136 144 -174 148 -94 341 -78 469 40 95 87
128 173 122 313 -3 79 -8 101 -36 158 -40 81 -122 158 -202 188 -62 24 -175
33 -233 19z m188 -154 c91 -43 144 -126 145 -225 0 -84 -18 -130 -76 -188 -59
-60 -110 -78 -193 -70 -109 12 -203 103 -216 212 -26 203 164 355 340 271z"/>
<path d="M2710 1144 c-75 -33 -120 -96 -120 -170 0 -72 31 -125 118 -202 148
-131 172 -157 172 -190 0 -40 -40 -72 -88 -72 -30 0 -44 8 -82 49 l-45 48 -58
-37 -58 -36 33 -49 c133 -198 438 -124 438 106 0 67 -44 132 -155 229 -101 88
-145 134 -145 151 0 20 42 49 70 49 21 0 43 -12 73 -39 l42 -39 48 44 c26 25
47 48 47 53 0 4 -17 23 -37 43 -73 71 -175 96 -253 62z"/>
<path d="M156 1123 c-3 -10 -30 -166 -61 -348 -30 -181 -58 -342 -61 -358 l-6
-27 71 0 c42 0 71 4 71 10 0 19 71 425 77 440 3 8 40 -88 82 -215 l78 -230 63
0 63 0 78 230 c42 127 79 223 82 215 3 -8 20 -100 36 -205 17 -104 34 -202 37
-218 5 -26 7 -27 73 -27 l68 0 -59 353 c-32 193 -60 362 -63 375 -5 20 -11 22
-73 22 l-67 0 -85 -255 c-47 -140 -87 -255 -90 -255 -3 0 -43 115 -90 255
l-85 255 -67 0 c-55 0 -68 -3 -72 -17z"/>
<path d="M1845 1123 c3 -10 63 -179 132 -375 l126 -358 67 0 c55 0 69 3 75 18
4 9 60 166 125 347 65 182 123 342 129 358 l11 27 -73 0 -73 0 -22 -62 c-122
-341 -166 -457 -172 -453 -3 2 -47 119 -96 260 l-89 255 -74 0 c-66 0 -72 -2
-66 -17z"/>
<path d="M3090 1070 l0 -70 65 0 65 0 0 -305 0 -305 75 0 75 0 0 305 0 305 65
0 65 0 0 70 0 70 -205 0 -205 0 0 -70z"/>
<path d="M3776 1023 c-120 -312 -236 -618 -236 -626 0 -4 32 -7 72 -5 l72 3
31 77 30 78 151 0 151 0 29 -77 29 -78 73 -3 c39 -2 72 0 72 4 0 6 -226 602
-267 707 l-15 37 -73 0 -73 0 -46 -117z m169 -206 c25 -65 45 -120 45 -122 0
-3 -43 -5 -96 -5 -88 0 -96 2 -89 18 4 9 25 65 48 125 22 59 42 106 43 104 2
-1 24 -56 49 -120z"/>
<path d="M263 130 c0 -41 2 -58 4 -37 2 20 2 54 0 75 -2 20 -4 3 -4 -38z"/>
<path d="M312 128 l1 -73 6 60 6 60 35 -57 c19 -32 38 -58 43 -58 4 0 6 33 5
73 l-1 72 -6 -60 -6 -60 -37 58 c-21 31 -40 57 -43 57 -3 0 -4 -33 -3 -72z"/>
<path d="M452 128 c2 -70 2 -71 5 -15 2 31 7 57 11 57 4 0 23 -26 41 -57 19
-31 36 -52 39 -45 2 6 -3 18 -11 26 -8 8 -27 35 -43 60 -16 25 -32 46 -36 46
-5 0 -7 -33 -6 -72z"/>
<path d="M638 193 c6 -2 18 -2 25 0 6 3 1 5 -13 5 -14 0 -19 -2 -12 -5z"/>
<path d="M750 145 c29 -86 30 -88 35 -83 11 10 54 138 47 138 -5 0 -17 -28
-28 -62 l-20 -63 -18 55 c-10 30 -23 59 -27 65 -5 5 0 -17 11 -50z"/>
<path d="M897 193 c-10 -9 -9 -25 1 -19 4 3 13 -8 19 -25 11 -27 10 -29 -14
-29 -20 0 -23 4 -19 23 3 12 -3 4 -13 -18 -11 -22 -19 -47 -19 -55 0 -8 4 -3
10 13 13 37 64 39 78 2 5 -14 12 -25 15 -25 4 0 -41 130 -49 137 -1 2 -6 0 -9
-4z"/>
<path d="M987 193 c20 -4 22 -12 26 -71 l3 -67 2 67 c2 64 3 67 30 71 15 2 2
4 -28 4 -30 0 -45 -2 -33 -4z"/>
<path d="M1093 130 c0 -41 2 -58 4 -37 2 20 2 54 0 75 -2 20 -4 3 -4 -38z"/>
<path d="M1188 193 c6 -2 18 -2 25 0 6 3 1 5 -13 5 -14 0 -19 -2 -12 -5z"/>
<path d="M1300 188 c0 -10 4 -18 9 -18 5 0 24 -25 42 -55 18 -30 37 -55 41
-55 4 0 7 33 6 73 -2 69 -2 70 -5 15 -2 -32 -7 -58 -11 -58 -4 0 -15 15 -25
33 -10 17 -26 43 -37 57 -16 20 -20 22 -20 8z"/>
<path d="M1537 193 c20 -4 22 -12 26 -71 l3 -67 2 67 c2 64 3 67 30 71 15 2 2
4 -28 4 -30 0 -45 -2 -33 -4z"/>
<path d="M1640 130 l0 -70 38 2 c36 1 36 1 5 5 -29 4 -33 8 -33 33 0 25 4 29
33 33 l32 4 -32 1 c-28 2 -33 6 -33 26 0 20 6 25 33 29 31 4 31 4 -5 5 l-38 2
0 -70z"/>
<path d="M1798 193 c6 -2 18 -2 25 0 6 3 1 5 -13 5 -14 0 -19 -2 -12 -5z"/>
<path d="M1873 130 c0 -41 2 -58 4 -37 4 36 6 37 43 37 37 0 39 -1 43 -37 2
-21 4 -4 4 37 0 41 -2 60 -4 43 -4 -31 -7 -33 -43 -33 -36 0 -39 2 -43 33 -2
17 -4 -2 -4 -43z"/>
<path d="M2012 128 c2 -70 2 -71 5 -15 2 31 7 57 11 57 4 0 23 -26 41 -57 19
-31 36 -52 39 -45 2 6 -3 18 -11 26 -8 8 -27 35 -43 60 -16 25 -32 46 -36 46
-5 0 -7 -33 -6 -72z"/>
<path d="M2198 193 c6 -2 18 -2 25 0 6 3 1 5 -13 5 -14 0 -19 -2 -12 -5z"/>
<path d="M2312 133 l-2 -73 38 2 c36 1 36 1 5 5 l-32 4 -4 67 -3 67 -2 -72z"/>
<path d="M2448 193 c6 -2 18 -2 25 0 6 3 1 5 -13 5 -14 0 -19 -2 -12 -5z"/>
<path d="M2613 193 c9 -2 23 -2 30 0 6 3 -1 5 -18 5 -16 0 -22 -2 -12 -5z"/>
<path d="M2701 159 c12 -24 26 -57 30 -74 l7 -30 1 33 c1 18 10 51 22 73 11
23 16 38 11 35 -5 -3 -15 -19 -22 -36 -7 -16 -16 -30 -20 -30 -4 0 -13 14 -20
30 -7 17 -17 33 -22 36 -5 3 1 -14 13 -37z"/>
<path d="M2893 193 c21 -5 23 -39 3 -46 -10 -4 -18 4 -25 21 -6 17 -10 21 -10
10 -1 -10 15 -35 34 -56 19 -22 32 -42 30 -46 -3 -3 -2 -4 2 -1 3 3 13 -1 22
-8 14 -10 14 -10 4 3 -8 10 -9 21 -3 30 15 24 11 36 -4 14 -14 -18 -16 -18
-31 -3 -14 14 -15 20 -4 36 15 25 5 53 -18 52 -17 -1 -17 -2 0 -6z"/>
<path d="M3050 197 c0 -2 9 -21 19 -43 11 -22 23 -52 26 -67 4 -15 11 -27 15
-27 9 0 21 42 15 49 -3 2 -5 -1 -5 -7 0 -30 -18 -7 -35 43 -11 30 -23 55 -27
55 -4 0 -8 -1 -8 -3z"/>
<path d="M3145 167 c-21 -51 -18 -59 5 -13 11 22 18 42 15 44 -3 3 -12 -11
-20 -31z"/>
<path d="M3250 191 c0 -5 -3 -18 -6 -28 -5 -15 -4 -16 5 -3 10 13 12 13 21 0
16 -24 12 -40 -10 -40 -11 0 -20 6 -20 13 0 8 -4 7 -10 -3 -15 -24 -12 -26 25
-22 30 4 35 1 41 -22 3 -14 10 -26 14 -26 4 0 -4 32 -18 70 -23 61 -42 89 -42
61z"/>
<path d="M3342 128 l1 -73 6 60 6 60 38 -57 c21 -32 40 -58 42 -58 3 0 4 33 3
73 l-1 72 -6 -60 -6 -60 -35 57 c-19 32 -38 58 -42 58 -5 0 -7 -33 -6 -72z"/>
<path d="M3493 130 c0 -47 2 -63 6 -42 7 39 19 39 49 -1 12 -17 22 -27 22 -22
0 4 -11 23 -25 40 -13 18 -21 36 -17 41 4 5 -1 3 -10 -5 -15 -11 -17 -8 -21
26 -2 21 -4 4 -4 -37z"/>
<path d="M3544 178 l-19 -23 23 19 c12 11 22 21 22 23 0 8 -8 2 -26 -19z"/>
<path d="M3613 130 c0 -41 2 -58 4 -37 2 20 2 54 0 75 -2 20 -4 3 -4 -38z"/>
<path d="M3662 128 l1 -73 6 60 6 60 35 -57 c19 -32 38 -58 43 -58 4 0 6 33 5
73 l-1 72 -6 -60 -6 -60 -37 58 c-21 31 -40 57 -43 57 -3 0 -4 -33 -3 -72z"/>
<path d="M3800 130 l0 -70 33 1 c30 2 30 2 5 6 -27 4 -28 7 -28 63 0 56 1 59
28 63 25 4 25 4 -5 6 l-33 1 0 -70z"/>
<path d="M600 171 c-14 -28 -12 -64 5 -87 13 -17 14 -16 4 14 -8 22 -8 41 0
62 11 34 7 40 -9 11z"/>
<path d="M692 163 c10 -26 10 -40 0 -65 -10 -30 -10 -31 3 -14 8 11 15 32 15
46 0 14 -7 35 -15 46 -13 17 -13 16 -3 -13z"/>
<path d="M1150 171 c-14 -28 -12 -64 5 -87 13 -17 13 -16 3 14 -9 24 -10 39
-1 62 13 34 9 40 -7 11z"/>
<path d="M1241 163 c8 -24 8 -42 0 -65 -10 -30 -9 -31 4 -14 8 11 15 32 15 46
0 14 -7 35 -15 46 -13 17 -14 16 -4 -13z"/>
<path d="M1760 174 c-19 -21 -16 -72 3 -90 9 -8 12 -9 7 -2 -14 17 -13 81 2
96 7 7 9 12 6 12 -3 0 -11 -7 -18 -16z"/>
<path d="M2160 171 c-14 -28 -12 -64 5 -87 13 -17 14 -16 4 14 -8 22 -8 41 0
62 11 34 7 40 -9 11z"/>
<path d="M2252 163 c10 -26 10 -40 0 -65 -10 -30 -10 -31 3 -14 8 11 15 32 15
46 0 14 -7 35 -15 46 -13 17 -13 16 -3 -13z"/>
<path d="M2410 171 c-14 -28 -12 -64 5 -87 13 -17 14 -16 4 14 -8 22 -8 41 0
62 11 34 7 40 -9 11z"/>
<path d="M2502 163 c10 -26 10 -40 0 -65 -10 -30 -10 -31 3 -14 8 11 15 32 15
46 0 14 -7 35 -15 46 -13 17 -13 16 -3 -13z"/>
<path d="M2566 168 c-9 -12 -16 -31 -16 -41 0 -23 18 -57 30 -57 5 0 1 13 -8
30 -16 28 -16 32 0 60 20 35 16 40 -6 8z"/>
<path d="M3886 163 c14 -30 14 -36 0 -65 l-16 -33 20 24 c11 13 20 31 20 41 0
10 -9 28 -20 41 l-20 24 16 -32z"/>
<path d="M3053 110 c0 -30 2 -43 4 -28 2 16 2 40 0 55 -2 16 -4 3 -4 -27z"/>
<path d="M1303 100 c0 -25 2 -35 4 -22 2 12 2 32 0 45 -2 12 -4 2 -4 -23z"/>
<path d="M2632 123 c9 -2 19 -16 21 -31 4 -24 4 -24 6 6 1 27 -2 32 -21 31
-16 -1 -18 -3 -6 -6z"/>
<path d="M2853 114 c-9 -24 10 -49 38 -51 24 -2 24 -2 -1 6 -19 5 -25 14 -25
34 1 31 -3 34 -12 11z"/>
<path d="M3206 73 c-6 -14 -5 -15 5 -6 7 7 10 15 7 18 -3 3 -9 -2 -12 -12z"/>
<path d="M1436 65 c-3 -9 -6 -22 -5 -28 0 -7 5 -1 10 12 5 13 8 26 5 28 -2 2
-6 -3 -10 -12z"/>
<path d="M638 63 c6 -2 18 -2 25 0 6 3 1 5 -13 5 -14 0 -19 -2 -12 -5z"/>
<path d="M1188 63 c6 -2 18 -2 25 0 6 3 1 5 -13 5 -14 0 -19 -2 -12 -5z"/>
<path d="M1798 63 c6 -2 18 -2 25 0 6 3 1 5 -13 5 -14 0 -19 -2 -12 -5z"/>
<path d="M2198 63 c6 -2 18 -2 25 0 6 3 1 5 -13 5 -14 0 -19 -2 -12 -5z"/>
<path d="M2448 63 c6 -2 18 -2 25 0 6 3 1 5 -13 5 -14 0 -19 -2 -12 -5z"/>
<path d="M2608 63 c6 -2 18 -2 25 0 6 3 1 5 -13 5 -14 0 -19 -2 -12 -5z"/>
</g>
</svg>
